<?xml version="1.0" encoding="utf-8"?>
<!-- Generator: Adobe Illustrator 16.0.0, SVG Export Plug-In . SVG Version: 6.00 Build 0)  -->
<!DOCTYPE svg PUBLIC "-//W3C//DTD SVG 1.1//EN" "http://www.w3.org/Graphics/SVG/1.1/DTD/svg11.dtd">
<svg version="1.1" id="图层_1" xmlns="http://www.w3.org/2000/svg" xmlns:xlink="http://www.w3.org/1999/xlink" x="0px" y="0px"
	 viewBox="0 0 50 50" enable-background="new 0 0 50 50" xml:space="preserve">
<g>
	<path fill="#FFFFFF" d="M6.426,23.449c0,0.496-0.149,0.914-0.446,1.258c-0.32,0.365-0.723,0.547-1.211,0.547H3.205
		c-0.441,0-0.762,0.046-0.959,0.136c-0.282,0.136-0.453,0.384-0.514,0.745h4.421v1.37H0.223l-0.011-0.694
		c-0.031-1.951,0.964-2.927,2.986-2.927h1.562c0.197,0,0.296-0.148,0.296-0.445c0-0.29-0.099-0.435-0.296-0.435H0.498v-1.371H4.77
		c0.487,0,0.891,0.183,1.211,0.548C6.277,22.532,6.426,22.955,6.426,23.449z"/>
	<path fill="#FFFFFF" d="M12.732,25.646c0,0.532-0.185,0.975-0.554,1.328c-0.37,0.354-0.821,0.53-1.354,0.53H8.917
		c-0.533,0-0.986-0.177-1.359-0.53s-0.56-0.796-0.56-1.328v-2.154c0-0.533,0.187-0.975,0.56-1.329
		c0.373-0.354,0.826-0.53,1.359-0.53h1.908c0.533,0,0.984,0.177,1.354,0.53c0.369,0.353,0.554,0.795,0.554,1.329V25.646z
		 M11.361,25.645v-2.15c0-0.326-0.179-0.49-0.537-0.49H8.916c-0.366,0-0.548,0.164-0.548,0.49v2.15c0,0.326,0.183,0.49,0.548,0.49
		h1.908C11.182,26.135,11.361,25.971,11.361,25.645z"/>
	<path fill="#FFFFFF" d="M19.517,23.449c0,0.496-0.148,0.914-0.445,1.258c-0.32,0.365-0.724,0.547-1.211,0.547h-1.565
		c-0.442,0-0.762,0.046-0.959,0.136c-0.282,0.136-0.453,0.384-0.514,0.745h4.421v1.37h-5.93l-0.011-0.694
		c-0.03-1.951,0.965-2.927,2.986-2.927h1.562c0.197,0,0.296-0.148,0.296-0.445c0-0.29-0.099-0.435-0.296-0.435h-4.262v-1.371h4.272
		c0.486,0,0.891,0.183,1.211,0.548C19.369,22.532,19.517,22.955,19.517,23.449z"/>
	<path fill="#FFFFFF" d="M26.303,23.449c0,0.496-0.148,0.914-0.446,1.258c-0.319,0.365-0.723,0.547-1.211,0.547h-1.564
		c-0.441,0-0.762,0.046-0.96,0.136c-0.281,0.136-0.452,0.384-0.514,0.745h4.421v1.37h-5.93l-0.011-0.694
		c-0.03-1.951,0.964-2.927,2.985-2.927h1.562c0.198,0,0.296-0.148,0.296-0.445c0-0.29-0.098-0.435-0.296-0.435h-4.261v-1.371h4.271
		c0.487,0,0.891,0.183,1.211,0.548C26.154,22.532,26.303,22.955,26.303,23.449z"/>
	<path fill="#FFFFFF" d="M28.52,27.505h-1.646v-1.359h1.646V27.505z"/>
	<path fill="#BED03E" d="M35.533,25.646c0,0.532-0.186,0.975-0.555,1.328s-0.82,0.53-1.354,0.53H29.09v-3.701h1.371v2.331h3.174
		c0.352,0,0.527-0.164,0.527-0.49v-2.15c0-0.326-0.176-0.49-0.527-0.49H29.09v-1.371h4.535c0.533,0,0.984,0.177,1.354,0.53
		s0.555,0.796,0.555,1.329V25.646z"/>
	<path fill="#BED03E" d="M42.375,23.004h-4.9v0.88h4.582v1.371h-4.582v0.88h4.889v1.371h-6.26v-5.873h6.271V23.004z"/>
	<path fill="#BED03E" d="M49.789,21.633l-2.992,5.873h-1.166l-3.004-5.873h1.531l2.066,4.021l2.033-4.021H49.789z"/>
</g>
</svg>
