<?xml version="1.0" encoding="utf-8"?>
<!-- Generator: Adobe Illustrator 16.0.0, SVG Export Plug-In . SVG Version: 6.00 Build 0)  -->
<!DOCTYPE svg PUBLIC "-//W3C//DTD SVG 1.1//EN" "http://www.w3.org/Graphics/SVG/1.1/DTD/svg11.dtd">
<svg version="1.1" id="图层_1" xmlns="http://www.w3.org/2000/svg" xmlns:xlink="http://www.w3.org/1999/xlink" x="0px" y="0px"
	 viewBox="0 0 227 59" enable-background="new 0 0 227 59" xml:space="preserve">
<g>
	<path fill="#C6D936" d="M10.711,37.596H3.192c-0.881,0-1.631-0.293-2.248-0.877c-0.617-0.585-0.925-1.316-0.925-2.196v-3.563
		c0-0.88,0.308-1.613,0.925-2.197c0.617-0.584,1.367-0.876,2.248-0.876h7.519v2.267H3.192c-0.604,0-0.907,0.27-0.907,0.81v3.558
		c0,0.539,0.302,0.809,0.907,0.809h7.519V37.596z"/>
	<path fill="#C6D936" d="M23.576,37.596h-2.267v-3.08h-5.97v-2.267h5.97v-1.36c0-0.491-0.164-0.736-0.491-0.736h-6.423
		c-0.315,0-0.473,0.245-0.473,0.735v6.708h-2.267v-6.713c0-0.816,0.255-1.521,0.765-2.111c0.51-0.591,1.168-0.886,1.974-0.886h6.423
		c0.818,0,1.483,0.295,1.993,0.886c0.51,0.591,0.765,1.295,0.765,2.111V37.596z"/>
	<path fill="#C6D936" d="M34.892,30.152h-8.104v1.454h7.576v2.268h-7.576v1.454h8.085v2.268H24.521v-9.71h10.371V30.152z"/>
	<path fill="#C6D936" d="M47.436,34.602c0,0.815-0.246,1.513-0.737,2.09c-0.529,0.603-1.197,0.904-2.002,0.904h-8.388v-2.268h8.388
		c0.314,0,0.472-0.242,0.472-0.727c0-0.485-0.158-0.728-0.472-0.728h-6.102c-0.806,0-1.473-0.303-2.002-0.907
		c-0.504-0.566-0.755-1.259-0.755-2.078c0-0.818,0.258-1.523,0.774-2.116c0.516-0.592,1.177-0.888,1.983-0.888h8.388v2.267h-8.406
		c-0.315,0-0.473,0.245-0.473,0.736c0,0.479,0.158,0.718,0.473,0.718h6.114c0.808,0,1.477,0.302,2.007,0.904
		C47.19,33.088,47.436,33.785,47.436,34.602z"/>
	<path fill="#C6D936" d="M60.301,37.596h-2.267v-3.08h-5.97v-2.267h5.97v-1.36c0-0.491-0.164-0.736-0.491-0.736H51.12
		c-0.315,0-0.473,0.245-0.473,0.735v6.708H48.38v-6.713c0-0.816,0.255-1.521,0.765-2.111c0.51-0.591,1.168-0.886,1.974-0.886h6.423
		c0.818,0,1.483,0.295,1.993,0.886c0.51,0.591,0.765,1.295,0.765,2.111V37.596z"/>
	<path fill="#C6D936" d="M72.655,37.596h-3.098l-4.855-5.441h5.837c0.416,0,0.624-0.333,0.624-1.001
		c0-0.667-0.208-1.001-0.624-1.001h-7.028v7.443h-2.267v-9.71h9.427c0.869,0,1.555,0.34,2.059,1.02
		c0.466,0.617,0.699,1.367,0.699,2.248c0,0.882-0.233,1.631-0.699,2.248c-0.504,0.681-1.19,1.021-2.059,1.021h-0.869L72.655,37.596z
		"/>
	<path fill="#C6D936" d="M85.067,37.596h-7.519c-0.881,0-1.631-0.293-2.248-0.877c-0.617-0.585-0.925-1.316-0.925-2.196v-3.563
		c0-0.88,0.308-1.613,0.925-2.197c0.617-0.584,1.367-0.876,2.248-0.876h7.519v2.267h-7.519c-0.604,0-0.907,0.27-0.907,0.81v3.558
		c0,0.539,0.302,0.809,0.907,0.809h7.519V37.596z"/>
	<path fill="#C6D936" d="M96.779,30.152h-4.383v7.443h-2.267v-7.443h-4.383v-2.267h11.033V30.152z"/>
	<path fill="#C6D936" d="M109.776,34.522c0,0.88-0.309,1.611-0.925,2.196c-0.617,0.584-1.367,0.877-2.248,0.877h-5.706
		c-0.881,0-1.631-0.293-2.248-0.877c-0.617-0.585-0.925-1.316-0.925-2.196v-3.563c0-0.88,0.308-1.613,0.925-2.197
		c0.617-0.584,1.367-0.876,2.248-0.876h5.706c0.881,0,1.631,0.292,2.248,0.876c0.617,0.584,0.925,1.317,0.925,2.197V34.522z
		 M107.509,34.52v-3.558c0-0.54-0.302-0.81-0.907-0.81h-5.706c-0.604,0-0.907,0.27-0.907,0.81v3.558
		c0,0.539,0.302,0.809,0.907,0.809h5.706C107.207,35.328,107.509,35.059,107.509,34.52z"/>
	<path fill="#FFFFFF" d="M123.976,27.016c-0.308,3.592-0.462,5.455-0.462,5.59c0,1.322,0.379,1.983,1.135,1.983
		c0.701,0,1.281-0.383,1.739-1.148s0.687-1.764,0.687-2.993c0-1.796-0.568-3.262-1.706-4.4c-1.138-1.137-2.712-1.706-4.723-1.706
		c-1.962,0-3.585,0.686-4.87,2.057c-1.286,1.372-1.929,3.087-1.929,5.147c0,2.017,0.604,3.641,1.809,4.87s2.847,1.845,4.926,1.845
		c1.61,0,6.789-2.365,7.97-2.912l-3.782,3.401c-1.15,0.492-2.589,0.737-4.316,0.737c-2.417,0-4.368-0.727-5.854-2.181
		c-1.484-1.455-2.228-3.356-2.228-5.706c0-2.429,0.779-4.447,2.339-6.055c1.559-1.608,3.556-2.412,5.991-2.412
		c2.274,0,4.152,0.668,5.631,2.006c1.479,1.337,2.219,3.079,2.219,5.226c0,1.599-0.396,2.904-1.19,3.915
		c-0.793,1.012-1.762,1.518-2.905,1.518c-1.458,0-2.192-0.771-2.205-2.315h-0.046c-0.492,1.544-1.433,2.315-2.822,2.315
		c-0.904,0-1.638-0.332-2.2-0.996s-0.844-1.568-0.844-2.712c0-1.5,0.387-2.746,1.162-3.736c0.774-0.99,1.774-1.485,2.998-1.485
		c0.479,0,0.905,0.122,1.277,0.364c0.372,0.243,0.607,0.546,0.706,0.909h0.036c0.007-0.024,0.04-0.4,0.102-1.125H123.976z
		 M117.841,32.099c0,0.744,0.158,1.342,0.476,1.794c0.316,0.452,0.767,0.678,1.352,0.678c0.805,0,1.44-0.402,1.904-1.208
		c0.465-0.806,0.696-1.87,0.696-3.192c0-1.389-0.584-2.084-1.752-2.084c-0.794,0-1.438,0.388-1.933,1.163
		C118.089,30.022,117.841,30.973,117.841,32.099z"/>
	<path fill="#FFFFFF" d="M143.448,36.655c-1.396,0.806-3.112,1.208-5.147,1.208c-2.275,0-4.071-0.64-5.387-1.919
		c-1.316-1.278-1.974-3.028-1.974-5.248c0-2.251,0.724-4.082,2.172-5.493s3.356-2.117,5.724-2.117c1.525,0,2.856,0.215,3.994,0.646
		v2.887c-1.107-0.646-2.46-0.969-4.059-0.969c-1.378,0-2.494,0.449-3.349,1.347c-0.854,0.898-1.282,2.082-1.282,3.552
		c0,1.494,0.386,2.659,1.158,3.496c0.771,0.836,1.824,1.254,3.159,1.254c0.793,0,1.441-0.123,1.946-0.369v-2.933h-2.888v-2.445
		h5.932V36.655z"/>
	<path fill="#FFFFFF" d="M161.998,37.614h-2.971v-5.82c0-1.563-0.568-2.343-1.706-2.343c-0.529,0-0.969,0.237-1.319,0.71
		s-0.525,1.052-0.525,1.734v5.719h-2.971V31.72c0-1.513-0.563-2.269-1.688-2.269c-0.561,0-1.008,0.226-1.343,0.678
		s-0.503,1.05-0.503,1.794v5.691h-2.979V27.412h2.979v1.596h0.037c0.356-0.584,0.83-1.038,1.421-1.36
		c0.59-0.323,1.211-0.484,1.863-0.484c1.433,0,2.413,0.643,2.942,1.928c0.787-1.286,1.931-1.928,3.432-1.928
		c2.22,0,3.33,1.372,3.33,4.114V37.614z"/>
	<path fill="#FFFFFF" d="M164.793,28.03c0.461-0.258,1.077-0.467,1.849-0.627c0.772-0.16,1.432-0.24,1.979-0.24
		c2.854,0,4.28,1.43,4.28,4.289v6.162h-2.832v-1.485h-0.036c-0.695,1.156-1.713,1.734-3.054,1.734c-0.966,0-1.738-0.275-2.319-0.825
		c-0.581-0.551-0.872-1.3-0.872-2.246c0-1.956,1.165-3.094,3.496-3.413L170.087,31c0-1.186-0.618-1.78-1.854-1.78
		c-1.218,0-2.365,0.369-3.44,1.107V28.03z M168.159,32.993c-1.076,0.142-1.614,0.627-1.614,1.457c0,0.382,0.131,0.688,0.393,0.923
		c0.261,0.233,0.613,0.351,1.056,0.351c0.609,0,1.11-0.216,1.504-0.646c0.394-0.43,0.59-0.965,0.59-1.604v-0.729L168.159,32.993z"/>
	<path fill="#FFFFFF" d="M175.188,24.119c0-0.455,0.161-0.826,0.483-1.111c0.323-0.286,0.737-0.429,1.241-0.429
		c0.517,0,0.935,0.146,1.255,0.438c0.319,0.292,0.479,0.659,0.479,1.102c0,0.449-0.163,0.823-0.489,1.121
		c-0.326,0.298-0.741,0.448-1.245,0.448c-0.498,0-0.91-0.151-1.236-0.452S175.188,24.562,175.188,24.119z M175.409,37.614V27.412
		h2.971v10.202H175.409z"/>
	<path fill="#FFFFFF" d="M180.999,37.614v-15.1h2.971v15.1H180.999z"/>
	<path fill="#FFFFFF" d="M188.019,37.596h-2.721v-2.248h2.721V37.596z"/>
	<path fill="#FFFFFF" d="M199.655,37.596h-7.519c-0.882,0-1.631-0.293-2.248-0.877c-0.617-0.585-0.926-1.316-0.926-2.196v-3.563
		c0-0.88,0.309-1.613,0.926-2.197c0.617-0.584,1.366-0.876,2.248-0.876h7.519v2.267h-7.519c-0.604,0-0.906,0.27-0.906,0.81v3.558
		c0,0.539,0.302,0.809,0.906,0.809h7.519V37.596z"/>
	<path fill="#FFFFFF" d="M212.652,34.522c0,0.88-0.309,1.611-0.926,2.196c-0.617,0.584-1.366,0.877-2.248,0.877h-5.705
		c-0.882,0-1.631-0.293-2.248-0.877c-0.617-0.585-0.926-1.316-0.926-2.196v-3.563c0-0.88,0.309-1.613,0.926-2.197
		c0.617-0.584,1.366-0.876,2.248-0.876h5.705c0.882,0,1.631,0.292,2.248,0.876c0.617,0.584,0.926,1.317,0.926,2.197V34.522z
		 M210.386,34.52v-3.558c0-0.54-0.303-0.81-0.907-0.81h-5.705c-0.604,0-0.906,0.27-0.906,0.81v3.558
		c0,0.539,0.302,0.809,0.906,0.809h5.705C210.083,35.328,210.386,35.059,210.386,34.52z"/>
	<path fill="#FFFFFF" d="M226.217,37.596h-2.268v-5.913l-4.043,5.762l-4.042-5.762v5.913h-2.268v-9.71h2.381l3.929,5.611
		l3.948-5.611h2.362V37.596z"/>
</g>
</svg>
